<?xml version="1.0" encoding="UTF-8" standalone="no"?>
<!-- Created with Inkscape (http://www.inkscape.org/) -->

<svg
   xmlns:dc="http://purl.org/dc/elements/1.1/"
   xmlns:cc="http://creativecommons.org/ns#"
   xmlns:rdf="http://www.w3.org/1999/02/22-rdf-syntax-ns#"
   xmlns:svg="http://www.w3.org/2000/svg"
   xmlns="http://www.w3.org/2000/svg"
   xmlns:sodipodi="http://sodipodi.sourceforge.net/DTD/sodipodi-0.dtd"
   xmlns:inkscape="http://www.inkscape.org/namespaces/inkscape"
   id="svg2985"
   version="1.1"
   inkscape:version="0.48.2 r9819"
   width="315"
   height="315"
   xml:space="preserve"
   sodipodi:docname="high-qual-light.svg"><metadata
     id="metadata2991"><rdf:RDF><cc:Work
         rdf:about=""><dc:format>image/svg+xml</dc:format><dc:type
           rdf:resource="http://purl.org/dc/dcmitype/StillImage" /><dc:title /></cc:Work></rdf:RDF></metadata><defs
     id="defs2989"><clipPath
       clipPathUnits="userSpaceOnUse"
       id="clipPath2999"><path
         d="M 0,108 252,108 252,0 0,0 0,108 z"
         id="path3001"
         inkscape:connector-curvature="0" /></clipPath></defs><sodipodi:namedview
     pagecolor="#ffffff"
     bordercolor="#666666"
     borderopacity="1"
     objecttolerance="10"
     gridtolerance="10"
     guidetolerance="10"
     inkscape:pageopacity="0"
     inkscape:pageshadow="2"
     inkscape:window-width="838"
     inkscape:window-height="604"
     id="namedview2987"
     showgrid="false"
     inkscape:zoom="1.3603388"
     inkscape:cx="124.92115"
     inkscape:cy="150.62522"
     inkscape:window-x="0"
     inkscape:window-y="0"
     inkscape:window-maximized="0"
     inkscape:current-layer="g2993" /><g
     id="g2993"
     inkscape:groupmode="layer"
     inkscape:label="High quality image from Tom"
     transform="matrix(1.25,0,0,-1.25,0,315)"><g
       id="g3003"
       transform="translate(200.79358,111.72553)"
       style="fill:#000000"><path
         d="m 0,0 -2.057,1.25 c -1.289,0.787 -2.207,1.563 -2.754,2.324 -0.544,0.762 -0.818,1.641 -0.818,2.633 0,1.488 0.518,2.697 1.551,3.627 1.031,0.928 2.373,1.393 4.025,1.393 1.578,0 3.026,-0.444 4.342,-1.329 l 0,-3.072 C 2.928,8.135 1.461,8.791 -0.107,8.791 -0.992,8.791 -1.719,8.586 -2.287,8.178 -2.855,7.77 -3.139,7.246 -3.139,6.607 -3.139,6.041 -2.93,5.512 -2.51,5.018 -2.092,4.523 -1.42,4.004 -0.492,3.461 L 1.576,2.236 c 2.305,-1.377 3.457,-3.129 3.457,-5.257 0,-1.516 -0.506,-2.749 -1.521,-3.696 -1.016,-0.945 -2.334,-1.42 -3.957,-1.42 -1.868,0 -3.569,0.574 -5.102,1.723 l 0,3.435 c 1.461,-1.851 3.152,-2.777 5.074,-2.777 0.848,0 1.553,0.236 2.118,0.709 0.564,0.471 0.845,1.063 0.845,1.772 C 2.49,-2.123 1.66,-1.033 0,0"
         style="fill:#000000;fill-opacity:1;fill-rule:nonzero;stroke:none"
         id="path3005"
         inkscape:connector-curvature="0" /></g><g
       id="g3007"
       transform="translate(53.072883,112.19233)"
       style="fill:#000000"><path
         d="m 0,0 -2.53,0 0,-5.994 2.665,0 c 1.479,0 2.483,0.115 3.011,0.346 0.527,0.228 0.951,0.587 1.271,1.074 0.32,0.488 0.48,1.011 0.48,1.57 0,0.578 -0.168,1.106 -0.506,1.584 -0.339,0.477 -0.82,0.834 -1.442,1.068 C 2.327,-0.117 1.344,0 0,0 m -0.203,8.092 -2.327,0 0,-5.684 1.799,0 c 1.443,0 2.469,0.276 3.079,0.826 0.608,0.551 0.913,1.264 0.913,2.139 0,1.813 -1.156,2.719 -3.464,2.719 m 1.366,-16.494 -6.399,0 0,18.902 4.952,0 c 1.56,0 2.778,-0.209 3.653,-0.629 C 4.243,9.453 4.911,8.875 5.371,8.141 5.831,7.404 6.062,6.555 6.062,5.588 6.062,3.73 5.101,2.4 3.18,1.596 4.56,1.334 5.657,0.768 6.474,-0.107 7.29,-0.982 7.698,-2.029 7.698,-3.248 7.698,-4.213 7.45,-5.074 6.954,-5.832 6.458,-6.59 5.729,-7.207 4.77,-7.686 3.809,-8.164 2.606,-8.402 1.163,-8.402"
         style="fill:#000000;fill-opacity:1;fill-rule:nonzero;stroke:none"
         id="path3009"
         inkscape:connector-curvature="0" /></g><g
       id="g3011"
       transform="translate(79.159783,111.79983)"
       style="fill:#000000"><path
         d="M 0,0 -3.05,6.848 -5.878,0 0,0 z m -3.976,11.002 1.902,0 8.475,-19.012 -2.769,0 -2.52,5.602 -8.064,0 -2.362,-5.602 -2.781,0 8.119,19.012 z"
         style="fill:#000000;fill-opacity:1;fill-rule:nonzero;stroke:none"
         id="path3013"
         inkscape:connector-curvature="0" /></g><g
       id="g3015"
       transform="translate(108.80728,122.69233)"
       style="fill:#000000"><path
         d="m 0,0 2.571,0 0,-18.902 -2.327,0 -12.639,14.558 0,-14.558 -2.543,0 0,18.902 2.192,0 L 0,-14.682 0,0 z"
         style="fill:#000000;fill-opacity:1;fill-rule:nonzero;stroke:none"
         id="path3017"
         inkscape:connector-curvature="0" /></g><g
       id="g3019"
       transform="translate(133.40398,122.69233)"
       style="fill:#000000"><path
         d="m 0,0 2.628,0 -5.585,-8.904 0,-9.998 -2.22,0 0,9.998 L -10.762,0 -8.148,0 -4.102,-6.516 0,0 z"
         style="fill:#000000;fill-opacity:1;fill-rule:nonzero;stroke:none"
         id="path3021"
         inkscape:connector-curvature="0" /></g><g
       id="g3023"
       transform="translate(153.30728,111.79983)"
       style="fill:#000000"><path
         d="M 0,0 -3.051,6.848 -5.878,0 0,0 z m -3.977,11.002 1.903,0 8.474,-19.012 -2.769,0 -2.52,5.602 -8.063,0 -2.362,-5.602 -2.782,0 8.119,19.012 z"
         style="fill:#000000;fill-opacity:1;fill-rule:nonzero;stroke:none"
         id="path3025"
         inkscape:connector-curvature="0" /></g><g
       id="g3027"
       transform="translate(182.95378,122.69233)"
       style="fill:#000000"><path
         d="m 0,0 2.572,0 0,-18.902 -2.328,0 -12.639,14.558 0,-14.558 -2.543,0 0,18.902 2.192,0 L 0,-14.682 0,0 z"
         style="fill:#000000;fill-opacity:1;fill-rule:nonzero;stroke:none"
         id="path3029"
         inkscape:connector-curvature="0" /></g><g
       id="g3031"
       transform="translate(138.00938,133.19873)"><path
         d="m 0,0 c -2.025,-3.086 -0.081,-7.94 -0.081,-7.94 0,0 5.227,0.15 7.252,3.236 2.022,3.086 0.08,7.941 0.08,7.941 C 7.251,3.237 2.024,3.087 0,0"
         style="fill:#80cc28;fill-opacity:1;fill-rule:nonzero;stroke:none"
         id="path3033"
         inkscape:connector-curvature="0" /></g><g
       id="g3035"
       transform="translate(120.66568,133.19873)"><path
         d="m 0,0 c 2.024,-3.086 0.081,-7.94 0.081,-7.94 0,0 -5.227,0.15 -7.253,3.236 -2.023,3.086 -0.079,7.941 -0.079,7.941 0,0 5.227,-0.15 7.251,-3.237"
         style="fill:#80cc28;fill-opacity:1;fill-rule:nonzero;stroke:none"
         id="path3037"
         inkscape:connector-curvature="0" /></g><g
       id="g3039"
       transform="translate(133.62468,132.02973)"><path
         d="m 0,0 c 0.076,-3.69 -4.149,-6.771 -4.149,-6.771 0,0 -4.349,2.904 -4.425,6.594 -0.075,3.691 4.151,6.771 4.151,6.771 0,0 4.347,-2.904 4.423,-6.594"
         style="fill:#80cc28;fill-opacity:1;fill-rule:nonzero;stroke:none"
         id="path3041"
         inkscape:connector-curvature="0" /></g><g
       id="g3043"
       transform="translate(131.77208,145.35593)"><path
         d="m 0,0 c 0.043,-2.107 -2.371,-3.868 -2.371,-3.868 0,0 -2.484,1.659 -2.527,3.767 -0.044,2.11 2.371,3.869 2.371,3.869 0,0 2.483,-1.659 2.527,-3.768"
         style="fill:#80cc28;fill-opacity:1;fill-rule:nonzero;stroke:none"
         id="path3045"
         inkscape:connector-curvature="0" /></g><g
       id="g3047"
       transform="translate(140.60028,139.35303)"><path
         d="m 0,0 c -1.641,-2.146 -5.467,-1.982 -5.467,-1.982 0,0 -1.164,3.646 0.478,5.794 1.64,2.146 5.463,1.982 5.463,1.982 C 0.474,5.794 1.638,2.147 0,0"
         style="fill:#80cc28;fill-opacity:1;fill-rule:nonzero;stroke:none"
         id="path3049"
         inkscape:connector-curvature="0" /></g><g
       id="g3051"
       transform="translate(118.17058,139.02973)"><path
         d="m 0,0 c 1.641,-2.146 5.467,-1.981 5.467,-1.981 0,0 1.165,3.646 -0.478,5.794 C 3.35,5.96 -0.473,5.794 -0.473,5.794 -0.473,5.794 -1.638,2.148 0,0"
         style="fill:#80cc28;fill-opacity:1;fill-rule:nonzero;stroke:none"
         id="path3053"
         inkscape:connector-curvature="0" /></g></g></svg>