<?xml version="1.0" encoding="UTF-8" standalone="no"?>
<!-- Created with Inkscape (http://www.inkscape.org/) -->

<svg
   xmlns:dc="http://purl.org/dc/elements/1.1/"
   xmlns:cc="http://creativecommons.org/ns#"
   xmlns:rdf="http://www.w3.org/1999/02/22-rdf-syntax-ns#"
   xmlns:svg="http://www.w3.org/2000/svg"
   xmlns="http://www.w3.org/2000/svg"
   xmlns:sodipodi="http://sodipodi.sourceforge.net/DTD/sodipodi-0.dtd"
   xmlns:inkscape="http://www.inkscape.org/namespaces/inkscape"
   width="349.02423"
   height="349.10544"
   id="svg3030"
   version="1.1"
   inkscape:version="0.48.2 r9819"
   sodipodi:docname="logo.svg"
   inkscape:export-filename="C:\Users\Rachit\Documents\GitHub\corbeaunoir\img\logo.png"
   inkscape:export-xdpi="300"
   inkscape:export-ydpi="300">
  <defs
     id="defs3032" />
  <sodipodi:namedview
     id="base"
     pagecolor="#ffffff"
     bordercolor="#666666"
     borderopacity="1.0"
     inkscape:pageopacity="0.0"
     inkscape:pageshadow="2"
     inkscape:zoom="1.4"
     inkscape:cx="-48.549862"
     inkscape:cy="157.34302"
     inkscape:document-units="px"
     inkscape:current-layer="layer1"
     showgrid="false"
     fit-margin-top="0"
     fit-margin-left="0"
     fit-margin-right="0"
     fit-margin-bottom="0"
     inkscape:window-width="1093"
     inkscape:window-height="669"
     inkscape:window-x="346"
     inkscape:window-y="87"
     inkscape:window-maximized="0" />
  <metadata
     id="metadata3035">
    <rdf:RDF>
      <cc:Work
         rdf:about="">
        <dc:format>image/svg+xml</dc:format>
        <dc:type
           rdf:resource="http://purl.org/dc/dcmitype/StillImage" />
        <dc:title></dc:title>
      </cc:Work>
    </rdf:RDF>
  </metadata>
  <g
     inkscape:label="Layer 1"
     inkscape:groupmode="layer"
     id="layer1"
     transform="translate(-5.65009,-9.06896)">
    <path
       style="fill:#363942;fill-opacity:1;stroke:none"
       d="m 354.13837,40.72684 c -4.0204,48.52705 2.20672,74.57152 -14.46886,110.38555 -23.87574,35.57701 -63.25228,63.37528 -55.07763,88.99397 3.44266,10.78903 16.09162,24.2363 19.48428,38.34299 4.758,15.26698 7.9743,22.68631 3.87042,40.17502 -3.99542,17.0265 -9.46687,30.79765 -33.00417,38.79167 l -85.52261,0 c 105.29813,-49.55746 15.62375,-42.93535 -5.12681,-32.62602 -35.93769,16.05427 -47.57063,32.62602 -147.93085,32.62602 L 78.40404,303.94116 272.8584,144.84214 323.77009,71.30303 z"
       id="path3778-7"
       inkscape:connector-curvature="0"
       sodipodi:nodetypes="ccscscccccccc" />
    <path
       style="fill:#ffffff;fill-opacity:1;stroke:none;stroke-width:1px;stroke-linecap:butt;stroke-linejoin:miter;stroke-opacity:0"
       d="m 132.08681,235.45175 -18.92857,-23.92857 -14.64286,-6.07143 c 4.61612,-10.05693 13.58656,-7.50131 21.42857,-8.21428 11.99958,-5.16177 20.72524,-1.98386 30,-0.35714 9.13531,2.95582 18.24236,4.49904 27.14286,-4.28572 7.4708,-12.46927 14.6956,-24.96416 23.36521,-37.30856 1.33884,-6.77538 7.40175,-15.35041 13.63706,-23.99112 l 31.3013,-35.12889 c 20.04747,-20.96193 27.33697,-38.53318 35.98214,-56.42857 1.62633,10.39276 -4.9618,24.251 -18.57143,41.07143 23.4781,-17.93784 41.24624,-52.35547 49.64525,-70.91084 0.14653,11.75147 2.4002,21.52122 -27.14151,56.74711 18.60104,-13.85174 31.52675,-36.9259 46.71956,-56.31601 1.84739,15.82195 -12.54141,34.49862 -29.29443,51.77032 15.31389,-11.62604 28.42021,-26.28749 41.92133,-40.4061 3.78375,9.37763 -6.53372,24.51926 -35.35534,47.22463 1.87622,-0.90435 3.63155,-0.60608 5.44914,-1.59838 13.96135,-7.62209 26.41656,-18.88733 39.25011,-28.20112 1.42414,6.647 -6.16193,17.09349 -24.4962,32.07235 5.58544,-2.21827 11.8595,-5.12515 15.90991,-5.80838 0.89584,5.41232 -7.97183,12.71435 -13.8896,19.44543 0,0 2.83222,2.2007 2.9845,4.04061 0.52571,6.35206 -9.80303,15.90991 -9.80303,15.90991 4.81671,1.39403 6.31903,4.39503 3.283,9.59645 l -7.07107,8.33376 c 5.66055,2.59945 4.32407,7.17242 0.75761,12.37436 l -7.82868,5.80838 c 2.3895,8.32118 -3.08767,11.75959 -7.29054,15.98895 -4.01397,13.02991 -7.82854,15.09314 -11.60715,15.17857 3.27846,7.15916 -2.90743,11.42643 -7.85714,16.07143 -23.08987,14.58321 -33.07024,48.8344 -17.88607,69.96326 33.60136,41.88154 30.3927,104.17607 -47.91617,99.32245 21.37245,-4.06741 77.67674,-45.40496 -0.98347,-65.53571 -14.68315,-7.3536 -18.04407,3.87318 -24.55358,3.92857 -3.31498,7.18894 -7.27114,6.73235 -11.51785,5.53571 -1.07473,5.78925 -5.36352,7.29308 -11.42858,6.42857 -2.20547,4.10181 -5.71119,5.95772 -10.53571,5.53572 -2.69311,3.79511 -8.08995,5.21013 -13.39286,5.44643 0.70123,4.27925 -8.91336,5.62763 -13.92857,7.58928 -1.74671,4.43819 -7.39969,5.52816 -14.10714,5.71429 -4.94416,5.55842 -9.91512,12.96965 -14.64286,3.57143 -5.17058,2.70148 -10.11039,10.36463 -15.71428,3.75 -5.48441,2.07658 -8.84563,8.65802 -15.26786,3.83928 -2.97148,-2.22957 -9.88094,9.15096 -15.71429,9.28572 -0.52748,-1.83664 -0.32771,-2.65103 -0.42519,-4.42624 -0.18394,-3.35002 1.2556,-11.8428 -0.91409,-9.32376 -7.98777,9.27394 -12.25552,17.82907 -21.78572,18.66071 1.4176,-9.11863 13.09594,-31.58291 9.19644,-23.57143 -4.9906,10.25311 -17.0312,17.29295 -26.69644,15.53572 7.61682,-7.02576 23.8673,-29.57524 16.875,-21.875 -6.59962,7.2678 -15.19055,11.87975 -27.94643,11.16071 11.62254,-6.03414 19.88172,-13.93208 27.41072,-21.96428 -10.45803,10.07465 -20.09945,12.17483 -29.375,11.60714 13.52206,-5.98122 23.73248,-14.22758 34.01786,-23.21429 -12.49279,9.70403 -19.02143,8.4738 -25.98215,8.03572 24.17014,-6.47433 35.47971,-23.86065 52.67857,-36.25 l 23.75,-21.78572 c 14.06836,-6.32396 28.78957,-11.60337 41.78572,-19.64286 z"
       id="path2996-1"
       inkscape:connector-curvature="0"
       sodipodi:nodetypes="cccccccccccccccccsccccsccccccccccccccccccccscsscscscccccccc" />
  </g>
</svg>
